grf
version=1
nRows=17
nColumns=73
inDegrees=yes
endheader
time	ground_force_1_vx	ground_force_1_vy	ground_force_1_vz	ground_force_1_px	ground_force_1_py	ground_force_1_pz	ground_moment_1_mx	ground_moment_1_my	ground_moment_1_mz	ground_force_2_vx	ground_force_2_vy	ground_force_2_vz	ground_force_2_px	ground_force_2_py	ground_force_2_pz	ground_moment_2_mx	ground_moment_2_my	ground_moment_2_mz	ground_force_3_vx	ground_force_3_vy	ground_force_3_vz	ground_force_3_px	ground_force_3_py	ground_force_3_pz	ground_moment_3_mx	ground_moment_3_my	ground_moment_3_mz	ground_force_4_vx	ground_force_4_vy	ground_force_4_vz	ground_force_4_px	ground_force_4_py	ground_force_4_pz	ground_moment_4_mx	ground_moment_4_my	ground_moment_4_mz	ground_force_5_vx	ground_force_5_vy	ground_force_5_vz	ground_force_5_px	ground_force_5_py	ground_force_5_pz	ground_moment_5_mx	ground_moment_5_my	ground_moment_5_mz	ground_force_6_vx	ground_force_6_vy	ground_force_6_vz	ground_force_6_px	ground_force_6_py	ground_force_6_pz	ground_moment_6_mx	ground_moment_6_my	ground_moment_6_mz	ground_force_7_vx	ground_force_7_vy	ground_force_7_vz	ground_force_7_px	ground_force_7_py	ground_force_7_pz	ground_moment_7_mx	ground_moment_7_my	ground_moment_7_mz	ground_force_8_vx	ground_force_8_vy	ground_force_8_vz	ground_force_8_px	ground_force_8_py	ground_force_8_pz	ground_moment_8_mx	ground_moment_8_my	ground_moment_8_mz
3.329000	-56.937416	511.069946	11.157542	0.575731	0.000000	0.317735	-0.000000	2.002974	-0.000000	0.000000	0.000000	0.000000	0.000000	0.000000	0.000000	0.000000	0.000000	0.000000	-56.454447	511.341958	10.793227	0.579075	0.000000	0.321050	-0.000000	2.090934	-0.000000	0.000000	0.000000	0.000000	0.000000	0.000000	0.000000	0.000000	0.000000	0.000000	-58.038469	511.084516	11.358224	0.578951	0.000000	0.318652	-0.000000	1.998887	0.000000	0.000000	0.000000	0.000000	0.000000	0.000000	0.000000	0.000000	0.000000	0.000000	-58.296143	508.251668	10.831731	0.575994	0.000000	0.318333	-0.000000	1.834041	-0.000000	0.000000	0.000000	0.000000	0.000000	0.000000	0.000000	0.000000	0.000000	0.000000
3.330000	-56.386925	509.653591	10.872809	0.574747	0.000000	0.317724	-0.000000	2.034523	-0.000000	0.000000	0.000000	0.000000	0.000000	0.000000	0.000000	0.000000	0.000000	0.000000	-55.943608	509.937484	10.500532	0.578063	0.000000	0.321059	-0.000000	2.109363	-0.000000	0.000000	0.000000	0.000000	0.000000	0.000000	0.000000	0.000000	0.000000	0.000000	-57.520666	509.697027	11.057373	0.577944	0.000000	0.318657	-0.000000	2.015944	0.000000	0.000000	0.000000	0.000000	0.000000	0.000000	0.000000	0.000000	0.000000	0.000000	-57.748424	506.843314	10.529693	0.575035	0.000000	0.318337	-0.000000	1.854780	-0.000000	0.000000	0.000000	0.000000	0.000000	0.000000	0.000000	0.000000	0.000000	0.000000
3.331000	-55.845807	508.244537	10.596003	0.573750	0.000000	0.317719	-0.000000	2.067790	-0.000000	0.000000	0.000000	0.000000	0.000000	0.000000	0.000000	0.000000	0.000000	0.000000	-55.435469	508.529000	10.210512	0.577054	0.000000	0.321067	-0.000000	2.129095	-0.000000	0.000000	0.000000	0.000000	0.000000	0.000000	0.000000	0.000000	0.000000	0.000000	-57.003005	508.308365	10.762733	0.576944	0.000000	0.318663	-0.000000	2.033355	0.000000	0.000000	0.000000	0.000000	0.000000	0.000000	0.000000	0.000000	0.000000	0.000000	-57.200483	505.439010	10.238761	0.574071	0.000000	0.318346	-0.000000	1.877944	-0.000000	0.000000	0.000000	0.000000	0.000000	0.000000	0.000000	0.000000	0.000000	0.000000
3.332000	-55.316775	506.844047	10.327345	0.572736	0.000000	0.317720	-0.000000	2.102696	-0.000000	0.000000	0.000000	0.000000	0.000000	0.000000	0.000000	0.000000	0.000000	0.000000	-54.931706	507.117179	9.923439	0.576047	0.000000	0.321074	-0.000000	2.150401	-0.000000	0.000000	0.000000	0.000000	0.000000	0.000000	0.000000	0.000000	0.000000	0.000000	-56.486974	506.919548	10.472990	0.575949	0.000000	0.318670	-0.000000	2.051671	0.000000	0.000000	0.000000	0.000000	0.000000	0.000000	0.000000	0.000000	0.000000	0.000000	-56.655474	504.040019	9.957374	0.573101	0.000000	0.318359	-0.000000	1.903736	-0.000000	0.000000	0.000000	0.000000	0.000000	0.000000	0.000000	0.000000	0.000000	0.000000
3.333000	-54.801204	505.451817	10.066441	0.571701	0.000000	0.317725	-0.000000	2.138731	-0.000000	0.000000	0.000000	0.000000	0.000000	0.000000	0.000000	0.000000	0.000000	0.000000	-54.433330	505.701680	9.639677	0.575040	0.000000	0.321080	-0.000000	2.173068	-0.000000	0.000000	0.000000	0.000000	0.000000	0.000000	0.000000	0.000000	0.000000	0.000000	-55.974557	505.531737	10.187431	0.574958	0.000000	0.318679	-0.000000	2.071569	0.000000	0.000000	0.000000	0.000000	0.000000	0.000000	0.000000	0.000000	0.000000	0.000000	-56.116596	502.647392	9.684800	0.572122	0.000000	0.318376	-0.000000	1.932644	-0.000000	0.000000	0.000000	0.000000	0.000000	0.000000	0.000000	0.000000	0.000000	0.000000
3.334000	-54.299262	504.066514	9.812027	0.570644	0.000000	0.317733	-0.000000	2.175075	-0.000000	0.000000	0.000000	0.000000	0.000000	0.000000	0.000000	0.000000	0.000000	0.000000	-53.940655	504.281705	9.359403	0.574031	0.000000	0.321083	-0.000000	2.196549	-0.000000	0.000000	0.000000	0.000000	0.000000	0.000000	0.000000	0.000000	0.000000	0.000000	-55.467589	504.145634	9.905925	0.573971	0.000000	0.318688	-0.000000	2.093514	0.000000	0.000000	0.000000	0.000000	0.000000	0.000000	0.000000	0.000000	0.000000	0.000000	-55.586528	501.261487	9.420910	0.571134	0.000000	0.318395	-0.000000	1.965005	-0.000000	0.000000	0.000000	0.000000	0.000000	0.000000	0.000000	0.000000	0.000000	0.000000
3.335000	-53.810383	502.686434	9.562539	0.569564	0.000000	0.317744	-0.000000	2.211016	-0.000000	0.000000	0.000000	0.000000	0.000000	0.000000	0.000000	0.000000	0.000000	0.000000	-53.453541	502.856662	9.082664	0.573018	0.000000	0.321085	-0.000000	2.220267	-0.000000	0.000000	0.000000	0.000000	0.000000	0.000000	0.000000	0.000000	0.000000	0.000000	-54.967278	502.761017	9.628595	0.572985	0.000000	0.318698	-0.000000	2.117489	0.000000	0.000000	0.000000	0.000000	0.000000	0.000000	0.000000	0.000000	0.000000	0.000000	-55.067008	499.881685	9.165361	0.570133	0.000000	0.318414	-0.000000	2.000560	-0.000000	0.000000	0.000000	0.000000	0.000000	0.000000	0.000000	0.000000	0.000000	0.000000
3.336000	-53.333688	501.310076	9.316958	0.568462	0.000000	0.317754	-0.000000	2.246241	-0.000000	0.000000	0.000000	0.000000	0.000000	0.000000	0.000000	0.000000	0.000000	0.000000	-52.971674	501.426582	8.809714	0.572000	0.000000	0.321084	-0.000000	2.243856	-0.000000	0.000000	0.000000	0.000000	0.000000	0.000000	0.000000	0.000000	0.000000	0.000000	-54.474056	501.376783	9.355498	0.571999	0.000000	0.318707	-0.000000	2.143013	0.000000	0.000000	0.000000	0.000000	0.000000	0.000000	0.000000	0.000000	0.000000	0.000000	-54.558681	498.506501	8.916992	0.569119	0.000000	0.318434	-0.000000	2.038365	-0.000000	0.000000	0.000000	0.000000	0.000000	0.000000	0.000000	0.000000	0.000000	0.000000
3.337000	-52.868136	499.936533	9.075245	0.567337	0.000000	0.317764	-0.000000	2.280758	0.000000	0.000000	0.000000	0.000000	0.000000	0.000000	0.000000	0.000000	0.000000	0.000000	-52.494687	499.992250	8.541374	0.570973	0.000000	0.321081	-0.000000	2.267222	-0.000000	0.000000	0.000000	0.000000	0.000000	0.000000	0.000000	0.000000	0.000000	0.000000	-53.987755	499.991362	9.086521	0.571009	0.000000	0.318716	-0.000000	2.169416	0.000000	0.000000	0.000000	0.000000	0.000000	0.000000	0.000000	0.000000	0.000000	0.000000	-54.061321	497.133966	8.674042	0.568089	0.000000	0.318453	-0.000000	2.077177	-0.000000	0.000000	0.000000	0.000000	0.000000	0.000000	0.000000	0.000000	0.000000	0.000000
3.338000	-52.412402	498.565591	8.838203	0.566192	0.000000	0.317774	-0.000000	2.314597	0.000000	0.000000	0.000000	0.000000	0.000000	0.000000	0.000000	0.000000	0.000000	0.000000	-52.022078	498.555142	8.279145	0.569938	0.000000	0.321078	-0.000000	2.290439	-0.000000	0.000000	0.000000	0.000000	0.000000	0.000000	0.000000	0.000000	0.000000	0.000000	-53.507890	498.603327	8.821576	0.570014	0.000000	0.318723	-0.000000	2.196147	0.000000	0.000000	0.000000	0.000000	0.000000	0.000000	0.000000	0.000000	0.000000	0.000000	-53.574170	495.762144	8.434974	0.567044	0.000000	0.318470	-0.000000	2.115970	-0.000000	0.000000	0.000000	0.000000	0.000000	0.000000	0.000000	0.000000	0.000000	0.000000
3.339000	-51.964543	497.197625	8.606878	0.565028	0.000000	0.317784	-0.000000	2.347530	0.000000	0.000000	0.000000	0.000000	0.000000	0.000000	0.000000	0.000000	0.000000	0.000000	-51.553021	497.117327	8.024971	0.568893	0.000000	0.321073	-0.000000	2.313583	-0.000000	0.000000	0.000000	0.000000	0.000000	0.000000	0.000000	0.000000	0.000000	0.000000	-53.033849	497.211862	8.560986	0.569012	0.000000	0.318730	-0.000000	2.222918	0.000000	0.000000	0.000000	0.000000	0.000000	0.000000	0.000000	0.000000	0.000000	0.000000	-53.096128	494.389556	8.199157	0.565984	0.000000	0.318485	-0.000000	2.154182	-0.000000	0.000000	0.000000	0.000000	0.000000	0.000000	0.000000	0.000000	0.000000	0.000000
3.340000	-51.521802	495.833626	8.381833	0.563848	0.000000	0.317791	-0.000000	2.378969	0.000000	0.000000	0.000000	0.000000	0.000000	0.000000	0.000000	0.000000	0.000000	0.000000	-51.086309	495.681407	7.780705	0.567840	0.000000	0.321066	-0.000000	2.336619	-0.000000	0.000000	0.000000	0.000000	0.000000	0.000000	0.000000	0.000000	0.000000	0.000000	-52.564880	495.816965	8.305752	0.567999	0.000000	0.318735	-0.000000	2.249671	0.000000	0.000000	0.000000	0.000000	0.000000	0.000000	0.000000	0.000000	0.000000	0.000000	-52.625771	493.015415	7.966935	0.564911	0.000000	0.318494	-0.000000	2.191616	-0.000000	0.000000	0.000000	0.000000	0.000000	0.000000	0.000000	0.000000	0.000000	0.000000
3.341000	-51.080860	494.475260	8.162823	0.562658	0.000000	0.317796	-0.000000	2.408191	0.000000	0.000000	0.000000	0.000000	0.000000	0.000000	0.000000	0.000000	0.000000	0.000000	-50.620513	494.250414	7.547583	0.566781	0.000000	0.321056	-0.000000	2.359422	-0.000000	0.000000	0.000000	0.000000	0.000000	0.000000	0.000000	0.000000	0.000000	0.000000	-52.099934	494.419545	8.057473	0.566974	0.000000	0.318739	-0.000000	2.276421	0.000000	0.000000	0.000000	0.000000	0.000000	0.000000	0.000000	0.000000	0.000000	0.000000	-52.161257	491.639764	7.739280	0.563830	0.000000	0.318498	-0.000000	2.228177	-0.000000	0.000000	0.000000	0.000000	0.000000	0.000000	0.000000	0.000000	0.000000	0.000000
3.342000	-50.638293	493.124692	7.949111	0.561462	0.000000	0.317796	-0.000000	2.434738	0.000000	0.000000	0.000000	0.000000	0.000000	0.000000	0.000000	0.000000	0.000000	0.000000	-50.154210	492.827577	7.326075	0.565718	0.000000	0.321043	-0.000000	2.381929	-0.000000	0.000000	0.000000	0.000000	0.000000	0.000000	0.000000	0.000000	0.000000	0.000000	-51.637570	493.021421	7.817916	0.565939	0.000000	0.318740	-0.000000	2.303091	0.000000	0.000000	0.000000	0.000000	0.000000	0.000000	0.000000	0.000000	0.000000	0.000000	-51.700240	490.263492	7.517254	0.562742	0.000000	0.318493	-0.000000	2.263677	0.000000	0.000000	0.000000	0.000000	0.000000	0.000000	0.000000	0.000000	0.000000	0.000000
3.343000	-50.190907	491.784229	7.740223	0.560264	0.000000	0.317790	-0.000000	2.458687	0.000000	0.000000	0.000000	0.000000	0.000000	0.000000	0.000000	0.000000	0.000000	0.000000	-49.686127	491.416168	7.116203	0.564654	0.000000	0.321027	-0.000000	2.404284	-0.000000	0.000000	0.000000	0.000000	0.000000	0.000000	0.000000	0.000000	0.000000	0.000000	-51.176091	491.625046	7.588411	0.564894	0.000000	0.318738	-0.000000	2.329467	0.000000	0.000000	0.000000	0.000000	0.000000	0.000000	0.000000	0.000000	0.000000	0.000000	-51.240009	488.888113	7.301452	0.561653	0.000000	0.318479	-0.000000	2.297808	0.000000	0.000000	0.000000	0.000000	0.000000	0.000000	0.000000	0.000000	0.000000	0.000000
3.344000	-49.735899	490.455835	7.536595	0.559069	0.000000	0.317779	-0.000000	2.480604	0.000000	0.000000	0.000000	0.000000	0.000000	0.000000	0.000000	0.000000	0.000000	0.000000	-49.215100	490.019290	6.918056	0.563590	0.000000	0.321007	-0.000000	2.426846	-0.000000	0.000000	0.000000	0.000000	0.000000	0.000000	0.000000	0.000000	0.000000	0.000000	-50.713812	490.233019	7.369485	0.563842	0.000000	0.318730	-0.000000	2.355318	0.000000	0.000000	0.000000	0.000000	0.000000	0.000000	0.000000	0.000000	0.000000	0.000000	-50.777759	487.515472	7.091849	0.560563	0.000000	0.318456	-0.000000	2.330345	0.000000	0.000000	0.000000	0.000000	0.000000	0.000000	0.000000	0.000000	0.000000	0.000000
3.345000	-49.270801	489.140516	7.339621	0.557880	0.000000	0.317763	-0.000000	2.501206	0.000000	0.000000	0.000000	0.000000	0.000000	0.000000	0.000000	0.000000	0.000000	0.000000	-48.739842	488.639353	6.732107	0.562528	0.000000	0.320984	-0.000000	2.450043	-0.000000	0.000000	0.000000	0.000000	0.000000	0.000000	0.000000	0.000000	0.000000	0.000000	-50.249244	488.847844	7.160992	0.562785	0.000000	0.318717	-0.000000	2.380590	0.000000	0.000000	0.000000	0.000000	0.000000	0.000000	0.000000	0.000000	0.000000	0.000000	-50.310909	486.147662	6.888309	0.559475	0.000000	0.318423	-0.000000	2.361446	0.000000	0.000000	0.000000	0.000000	0.000000	0.000000	0.000000	0.000000	0.000000	0.000000
